<svg width="121" height="34" viewBox="0 0 121 34" fill="none" xmlns="http://www.w3.org/2000/svg">
<path d="M19.4991 17.7646C19.4665 14.1414 22.4665 12.3788 22.6037 12.2967C20.9046 9.82018 18.2712 9.48181 17.3458 9.45483C15.134 9.22213 12.9885 10.778 11.8618 10.778C10.7126 10.778 8.9776 9.47731 7.10763 9.51553C4.70131 9.55263 2.45016 10.9455 1.21551 13.1083C-1.3325 17.5184 0.567826 23.9991 3.00901 27.5638C4.23016 29.3108 5.65709 31.2589 7.5248 31.1903C9.35204 31.1161 10.0346 30.0268 12.2396 30.0268C14.4244 30.0268 15.0654 31.1903 16.9702 31.1465C18.9312 31.1161 20.1659 29.3928 21.3443 27.6313C22.7555 25.6314 23.3222 23.6596 23.3447 23.5585C23.2997 23.5427 19.5373 22.1061 19.4991 17.7646ZM15.9008 7.10985C16.8836 5.88115 17.556 4.20953 17.3694 2.51318C15.9469 2.57614 14.1681 3.49682 13.1437 4.69854C12.2374 5.75749 11.4278 7.49318 11.6369 9.12545C13.2348 9.24461 14.8753 8.31944 15.9008 7.10985Z" fill="#010101"/>
<path d="M34.3042 8.44684C33.6374 8.44684 33.0606 8.41424 32.5804 8.35915V1.12635C33.252 1.02264 33.9306 0.971525 34.6101 0.973465C37.3594 0.973465 38.6255 2.32582 38.6255 4.53029C38.6255 7.07312 37.13 8.44684 34.3042 8.44684ZM34.7068 1.90089C34.3357 1.90089 34.0197 1.92338 33.7577 1.97733V7.47557C33.8994 7.49805 34.1715 7.50817 34.5539 7.50817C36.3552 7.50817 37.3807 6.48294 37.3807 4.56289C37.3807 2.8508 36.4531 1.90089 34.7068 1.90089ZM42.5712 8.50192C41.0217 8.50192 40.0176 7.34517 40.0176 5.77472C40.0176 4.13796 41.0431 2.97109 42.6589 2.97109C44.1859 2.97109 45.2125 4.07276 45.2125 5.68816C45.2125 7.34517 44.1544 8.50192 42.5712 8.50192ZM42.6162 3.83219C41.765 3.83219 41.2196 4.62809 41.2196 5.741C41.2196 6.83255 41.7762 7.62845 42.6049 7.62845C43.4336 7.62845 43.9902 6.77747 43.9902 5.71852C43.9902 4.63933 43.4449 3.83219 42.6162 3.83219ZM54.0485 3.08013L52.3899 8.38164H51.3093L50.6223 6.07937C50.4514 5.51622 50.3092 4.9448 50.1961 4.36729H50.1736C50.087 4.9451 49.9229 5.52404 49.7486 6.07937L49.0177 8.38164H47.9258L46.3651 3.08013H47.5761L48.1766 5.60048C48.3183 6.20078 48.4375 6.76735 48.5364 7.30245H48.5589C48.6455 6.85616 48.7872 6.29858 48.9952 5.61172L49.7486 3.08125H50.7088L51.4296 5.55776C51.6039 6.15806 51.7456 6.74712 51.8558 7.30357H51.8873C51.9637 6.75836 52.084 6.17942 52.2471 5.55776L52.8914 3.08125L54.0485 3.08013ZM60.1542 8.38164H58.9758V5.33743C58.9758 4.39989 58.616 3.92999 57.9065 3.92999C57.2082 3.92999 56.728 4.53029 56.728 5.22839V8.38164H55.5496V4.59549C55.5496 4.12672 55.5384 3.62422 55.5058 3.079H56.5425L56.5976 3.89739H56.6302C56.9473 3.33082 57.5905 2.97109 58.3113 2.97109C59.4245 2.97109 60.1554 3.82207 60.1554 5.20703L60.1542 8.38164ZM63.4039 8.38164H62.2243V0.647461H63.4039V8.38164ZM67.7004 8.50192C66.1521 8.50192 65.1468 7.34517 65.1468 5.77472C65.1468 4.13796 66.1723 2.97109 67.787 2.97109C69.3151 2.97109 70.3406 4.07276 70.3406 5.68816C70.3418 7.34517 69.2825 8.50192 67.7004 8.50192ZM67.7443 3.83219C66.8931 3.83219 66.3477 4.62809 66.3477 5.741C66.3477 6.83255 66.9054 7.62845 67.7319 7.62845C68.5618 7.62845 69.1172 6.77747 69.1172 5.71852C69.1184 4.63933 68.5741 3.83219 67.7443 3.83219ZM74.9869 8.38164L74.9014 7.77122H74.8699C74.5101 8.26248 73.985 8.50192 73.3193 8.50192C72.3691 8.50192 71.6945 7.83642 71.6945 6.9416C71.6945 5.63308 72.829 4.95634 74.7935 4.95634V4.85854C74.7935 4.16044 74.4235 3.81083 73.6926 3.81083C73.1698 3.81083 72.711 3.94235 72.3073 4.20428L72.0678 3.42974C72.5581 3.12397 73.1698 2.97109 73.8883 2.97109C75.2736 2.97109 75.973 3.70179 75.973 5.16431V7.11696C75.973 7.65206 75.9966 8.06687 76.0495 8.38276L74.9869 8.38164ZM74.825 5.741C73.5161 5.741 72.8594 6.05801 72.8594 6.81007C72.8594 7.36653 73.1979 7.63857 73.6679 7.63857C74.2672 7.63857 74.825 7.18104 74.825 6.55938V5.741ZM81.6953 8.38164L81.6402 7.53065H81.6076C81.2692 8.17367 80.7002 8.50192 79.9052 8.50192C78.6267 8.50192 77.6799 7.37777 77.6799 5.79608C77.6799 4.13796 78.6616 2.96996 80.0019 2.96996C80.7114 2.96996 81.2141 3.20941 81.4974 3.69054H81.5211V0.647461H82.7006V6.95284C82.7006 7.46545 82.713 7.94546 82.7445 8.38164H81.6953ZM81.5211 5.26211C81.5211 4.52017 81.0297 3.88727 80.2797 3.88727C79.406 3.88727 78.8718 4.66181 78.8718 5.75224C78.8718 6.82131 79.4262 7.55314 80.2561 7.55314C80.9971 7.55314 81.5211 6.909 81.5211 6.1457V5.26211ZM90.1793 8.50192C88.631 8.50192 87.6268 7.34517 87.6268 5.77472C87.6268 4.13796 88.6523 2.97109 90.267 2.97109C91.7952 2.97109 92.8207 4.07276 92.8207 5.68816C92.8218 7.34517 91.7637 8.50192 90.1793 8.50192ZM90.2232 3.83219C89.3731 3.83219 88.8277 4.62809 88.8277 5.741C88.8277 6.83255 89.3843 7.62845 90.2119 7.62845C91.0418 7.62845 91.5973 6.77747 91.5973 5.71852C91.5995 4.63933 91.0542 3.83219 90.2232 3.83219ZM99.1581 8.38164H97.9785V5.33743C97.9785 4.39989 97.6187 3.92999 96.9092 3.92999C96.2109 3.92999 95.7319 4.53029 95.7319 5.22839V8.38164H94.5523V4.59549C94.5523 4.12672 94.5411 3.62422 94.5085 3.079H95.5452L95.6003 3.89739H95.6329C95.9489 3.33082 96.5932 2.96996 97.3129 2.96996C98.4261 2.96996 99.1581 3.82095 99.1581 5.2059V8.38164ZM107.087 3.96371H105.79V6.53802C105.79 7.19341 106.017 7.52053 106.476 7.52053C106.684 7.52053 106.858 7.49805 106.999 7.46545L107.031 8.36028C106.803 8.44796 106.497 8.4918 106.117 8.4918C105.188 8.4918 104.633 7.97919 104.633 6.63695V3.96371H103.859V3.08013H104.633V2.10886L105.79 1.75925V3.079H107.087V3.96371ZM113.325 8.38164H112.148V5.35991C112.148 4.41113 111.789 3.93111 111.078 3.93111C110.468 3.93111 109.899 4.34593 109.899 5.18567V8.38164H108.722V0.647461H109.899V3.83219H109.922C110.294 3.25437 110.831 2.96996 111.517 2.96996C112.639 2.96996 113.325 3.84231 113.325 5.22839V8.38164ZM119.716 6.01417H116.18C116.203 7.01804 116.867 7.58461 117.851 7.58461C118.374 7.58461 118.855 7.49693 119.28 7.33393L119.463 8.15231C118.962 8.37039 118.372 8.47944 117.685 8.47944C116.026 8.47944 115.044 7.43173 115.044 5.80732C115.044 4.1818 116.05 2.95984 117.552 2.95984C118.907 2.95984 119.757 3.96371 119.757 5.4802C119.765 5.65916 119.751 5.8384 119.716 6.01417ZM118.636 5.17443C118.636 4.35604 118.223 3.77823 117.47 3.77823C116.793 3.77823 116.258 4.36728 116.181 5.17443H118.636Z" fill="#010101"/>
<path d="M43.9779 28.6836H41.4243L40.0255 24.2893H35.1634L33.8309 28.6836H31.3447L36.163 13.7234H39.1383L43.9779 28.6836ZM39.6038 22.4457L38.3388 18.5393C38.205 18.1402 37.9531 17.2004 37.5843 15.721H37.5393C37.3909 16.3573 37.1536 17.2971 36.8287 18.5393L35.585 22.4457H39.6038ZM56.3447 23.1573C56.3447 24.9919 55.8465 26.4421 54.8491 27.5067C53.9563 28.4543 52.8465 28.9276 51.523 28.9276C50.0938 28.9276 49.0661 28.4183 48.442 27.3976V33.0577H46.0447V21.4418C46.0447 20.2896 46.0143 19.1081 45.9558 17.8963H48.0642L48.198 19.6061H48.243C49.0425 18.3178 50.2557 17.6737 51.884 17.6737C53.1568 17.6737 54.2194 18.1762 55.0695 19.1823C55.9185 20.1907 56.3447 21.5149 56.3447 23.1573ZM53.9023 23.245C53.9023 22.195 53.6662 21.3294 53.1917 20.6471C52.6733 19.9377 51.9773 19.5825 51.1047 19.5825C50.5132 19.5825 49.9758 19.7803 49.4956 20.1704C49.0144 20.5639 48.6995 21.0776 48.5522 21.7139C48.4864 21.9518 48.4491 22.1967 48.4409 22.4435V24.2432C48.4409 25.0268 48.6815 25.6889 49.1628 26.2307C49.644 26.7703 50.2692 27.0413 51.0384 27.0413C51.9413 27.0413 52.6441 26.6916 53.1467 25.998C53.6505 25.3022 53.9023 24.3849 53.9023 23.245ZM68.7552 23.1573C68.7552 24.9919 68.2571 26.4421 67.2597 27.5067C66.3658 28.4543 65.2571 28.9276 63.9325 28.9276C62.5033 28.9276 61.4755 28.4183 60.8514 27.3976V33.0577H58.4541V21.4418C58.4541 20.2896 58.4238 19.1081 58.3653 17.8963H60.4736L60.6074 19.6061H60.6524C61.4508 18.3178 62.6641 17.6737 64.2934 17.6737C65.5652 17.6737 66.6278 18.1762 67.4801 19.1823C68.3279 20.1907 68.7552 21.5149 68.7552 23.1573ZM66.3118 23.245C66.3118 22.195 66.0745 21.3294 65.6 20.6471C65.0816 19.9377 64.3879 19.5825 63.5153 19.5825C62.9238 19.5825 62.3863 19.7803 61.9039 20.1704C61.4227 20.5639 61.1089 21.0776 60.9616 21.7139C60.8886 22.0107 60.8492 22.2524 60.8492 22.4435V24.2432C60.8492 25.0268 61.091 25.6889 61.57 26.2307C62.0512 26.7692 62.6764 27.0413 63.4478 27.0413C64.3519 27.0413 65.0547 26.6916 65.5562 25.998C66.0599 25.3022 66.3118 24.3849 66.3118 23.245ZM82.631 24.4872C82.631 25.7608 82.1857 26.7962 81.3007 27.5955C80.327 28.4678 78.9675 28.9051 77.2246 28.9051C75.6144 28.9051 74.3235 28.5948 73.3497 27.9732L73.9041 25.9756C74.9554 26.5983 76.1103 26.9086 77.3674 26.9086C78.2715 26.9086 78.9742 26.704 79.4757 26.2982C79.9784 25.8912 80.2325 25.3472 80.2325 24.6682C80.2325 24.06 80.0222 23.5508 79.6095 23.1359C79.1946 22.7223 78.5087 22.3367 77.5451 21.9826C74.9251 21.0057 73.614 19.5769 73.614 17.6973C73.614 16.4697 74.0772 15.4647 75.0015 14.6789C75.9258 13.8943 77.1515 13.502 78.6763 13.502C80.038 13.502 81.1725 13.7391 82.0732 14.2124L81.4716 16.1662C80.6238 15.7075 79.6669 15.4782 78.5964 15.4782C77.7508 15.4782 77.0874 15.6862 76.6129 16.0999C76.2137 16.4697 76.0113 16.9205 76.0113 17.4556C76.0113 18.0458 76.2418 18.5359 76.7006 18.9204C77.0986 19.2745 77.825 19.6601 78.8753 20.0738C80.1639 20.5931 81.1107 21.1979 81.7168 21.8926C82.3273 22.5874 82.631 23.4541 82.631 24.4872ZM90.5774 19.6949H87.935V24.9323C87.935 26.2645 88.4005 26.9288 89.3338 26.9288C89.7622 26.9288 90.1175 26.8929 90.3987 26.8175L90.465 28.6376C89.9927 28.814 89.3709 28.9029 88.6007 28.9029C87.6539 28.9029 86.914 28.6139 86.3799 28.0361C85.848 27.4583 85.5804 26.4904 85.5804 25.1279V19.6904H84.0062V17.8918H85.5804V15.9166L87.935 15.2062V17.8918H90.5774V19.6949ZM102.476 23.2011C102.476 24.8593 102.002 26.2206 101.055 27.2852C100.064 28.3812 98.7466 28.9276 97.1038 28.9276C95.5183 28.9276 94.2578 28.4026 93.3177 27.3538C92.3777 26.3027 91.9077 24.9784 91.9077 23.381C91.9077 21.7094 92.3934 20.3402 93.3616 19.2756C94.332 18.2099 95.6386 17.6771 97.2814 17.6771C98.8647 17.6771 100.136 18.2032 101.099 19.2531C102.019 20.2716 102.476 21.5869 102.476 23.2011ZM99.9913 23.2562C99.9913 22.2681 99.7777 21.4205 99.3493 20.7111C98.8467 19.8545 98.127 19.4262 97.1948 19.4262C96.2346 19.4262 95.498 19.8545 94.9965 20.7111C94.567 21.4205 94.3533 22.2827 94.3533 23.3012C94.3533 24.2905 94.567 25.1403 94.9965 25.8474C95.5149 26.704 96.2379 27.1323 97.1746 27.1323C98.091 27.1323 98.8096 26.695 99.329 25.826C99.7698 25.0998 99.9913 24.2466 99.9913 23.2562ZM110.272 20.0041C110.023 19.9591 109.77 19.9369 109.517 19.9377C108.673 19.9377 108.021 20.2547 107.562 20.8933C107.164 21.4553 106.964 22.1658 106.964 23.0235V28.6836H104.567V21.2935C104.569 20.1611 104.546 19.0288 104.497 17.8974H106.585L106.673 19.9613H106.739C106.993 19.252 107.391 18.6798 107.938 18.2515C108.438 17.8772 109.046 17.6746 109.671 17.6737C109.892 17.6737 110.092 17.6894 110.27 17.7175L110.272 20.0041ZM120.994 22.7796C121 23.1439 120.971 23.508 120.906 23.8666H113.714C113.741 24.9323 114.09 25.7485 114.758 26.3106C115.364 26.8119 116.147 27.0637 117.11 27.0637C118.175 27.0637 119.146 26.8951 120.02 26.5545L120.396 28.2171C119.375 28.6623 118.169 28.8837 116.778 28.8837C115.105 28.8837 113.792 28.3914 112.836 27.4089C111.882 26.4252 111.405 25.1032 111.405 23.4473C111.405 21.8218 111.849 20.4672 112.738 19.3869C113.669 18.2335 114.927 17.6568 116.511 17.6568C118.066 17.6568 119.243 18.2335 120.043 19.3869C120.676 20.3008 120.994 21.434 120.994 22.7796ZM118.708 22.1579C118.725 21.4463 118.567 20.8337 118.242 20.3154C117.827 19.6477 117.189 19.3149 116.333 19.3149C115.549 19.3149 114.911 19.6398 114.425 20.2918C114.026 20.8101 113.788 21.4329 113.715 22.1557L118.708 22.1579Z" fill="#010101"/>
</svg>
