<svg width="127" height="32" viewBox="0 0 127 32" fill="none" xmlns="http://www.w3.org/2000/svg">
<path d="M0.564855 2.53467C0.245675 2.85385 0.139282 3.38582 0.139282 4.02418V27.5371C0.139282 28.1755 0.352069 28.7075 0.671248 29.0266L0.777642 29.133L13.9704 15.9402V15.7275L0.564855 2.53467Z" fill="url(#paint0_linear_82_1600)"/>
<path d="M18.2261 20.4087L13.864 16.0465V15.7274L18.2261 11.3652L18.3325 11.4716L23.5458 14.4506C25.0353 15.3018 25.0353 16.6849 23.5458 17.5361L18.2261 20.4087Z" fill="url(#paint1_linear_82_1600)"/>
<path d="M18.3319 20.302L13.8634 15.8335L0.564209 29.1327C1.09618 29.6646 1.84093 29.6646 2.79847 29.2391L18.3319 20.302Z" fill="url(#paint2_linear_82_1600)"/>
<path d="M18.3319 11.365L2.79847 2.53431C1.84093 2.00235 1.09618 2.10874 0.564209 2.64071L13.8634 15.8335L18.3319 11.365Z" fill="url(#paint3_linear_82_1600)"/>
<path opacity="0.2" d="M18.2255 20.1958L2.79847 28.9201C1.94732 29.452 1.20257 29.3456 0.670603 28.9201L0.564209 29.0265L0.670603 29.1328C1.20257 29.5584 1.94732 29.6648 2.79847 29.1328L18.2255 20.1958Z" fill="black"/>
<path opacity="0.12" d="M0.564855 28.9199C0.245675 28.6007 0.139282 28.0687 0.139282 27.4304V27.5368C0.139282 28.1751 0.352069 28.7071 0.671248 29.0263V28.9199H0.564855ZM23.5458 17.2166L18.2261 20.1956L18.3325 20.302L23.5458 17.323C24.2905 16.8974 24.6097 16.3655 24.6097 15.8335C24.6097 16.3655 24.1842 16.791 23.5458 17.2166Z" fill="black"/>
<path opacity="0.25" d="M2.79911 2.64094L23.5458 14.4506C24.1842 14.8762 24.6097 15.3018 24.6097 15.8337C24.6097 15.3018 24.2905 14.7698 23.5458 14.3442L2.79911 2.53455C1.30961 1.6834 0.139282 2.32176 0.139282 4.02405V4.13045C0.139282 2.53455 1.30961 1.78979 2.79911 2.64094Z" fill="#010101"/>
<path d="M39.3435 4.16658C39.3435 5.05734 39.1209 5.83676 38.5641 6.39349C37.8961 7.06156 37.1166 7.3956 36.1145 7.3956C35.1124 7.3956 34.333 7.06156 33.6649 6.39349C32.9969 5.72542 32.6628 4.946 32.6628 3.94389C32.6628 2.94178 32.9969 2.16237 33.6649 1.4943C34.333 0.826223 35.1124 0.492188 36.1145 0.492188C36.5599 0.492188 37.0053 0.603532 37.4507 0.826223C37.8961 1.04891 38.2301 1.2716 38.4528 1.60564L37.8961 2.16237C37.4507 1.60564 36.894 1.38295 36.1145 1.38295C35.4465 1.38295 34.7784 1.60564 34.333 2.16237C33.7763 2.60775 33.5536 3.27582 33.5536 4.05524C33.5536 4.83465 33.7763 5.50273 34.333 5.94811C34.8897 6.39349 35.4465 6.72752 36.1145 6.72752C36.894 6.72752 37.4507 6.50483 38.0074 5.94811C38.3414 5.61407 38.5641 5.16869 38.5641 4.61196H36.1145V3.7212H39.3435V4.16658ZM44.4654 1.38295H41.4591V3.49851H44.2427V4.27793H41.4591V6.39349H44.4654V7.28425H40.5683V0.603533H44.4654V1.38295ZM48.1398 7.28425H47.249V1.38295H45.3562V0.603533H50.0327V1.38295H48.1398V7.28425ZM53.2617 7.28425V0.603533H54.1524V7.28425H53.2617ZM57.9382 7.28425H57.0474V1.38295H55.1545V0.603533H59.7197V1.38295H57.8268V7.28425H57.9382ZM68.5159 6.39349C67.8479 7.06156 67.0685 7.3956 66.0664 7.3956C65.0642 7.3956 64.2848 7.06156 63.6168 6.39349C62.9487 5.72542 62.6147 4.946 62.6147 3.94389C62.6147 2.94178 62.9487 2.16237 63.6168 1.4943C64.2848 0.826223 65.0642 0.492188 66.0664 0.492188C67.0685 0.492188 67.8479 0.826223 68.5159 1.4943C69.184 2.16237 69.518 2.94178 69.518 3.94389C69.518 4.946 69.184 5.72542 68.5159 6.39349ZM64.2848 5.83676C64.7302 6.28214 65.3983 6.61618 66.0664 6.61618C66.7344 6.61618 67.4025 6.39349 67.8479 5.83676C68.2933 5.39138 68.6273 4.72331 68.6273 3.94389C68.6273 3.16447 68.4046 2.4964 67.8479 2.05102C67.4025 1.60564 66.7344 1.2716 66.0664 1.2716C65.3983 1.2716 64.7302 1.4943 64.2848 2.05102C63.8395 2.4964 63.5054 3.16447 63.5054 3.94389C63.5054 4.72331 63.7281 5.39138 64.2848 5.83676ZM70.7428 7.28425V0.603533H71.7449L74.974 5.83676V0.603533H75.8647V7.28425H74.974L71.5223 1.82833V7.28425H70.7428Z" fill="#010101"/>
<path d="M62.726 17.6287C60.0537 17.6287 57.9382 19.633 57.9382 22.4166C57.9382 25.0889 60.0537 27.2044 62.726 27.2044C65.3983 27.2044 67.5138 25.2002 67.5138 22.4166C67.5138 19.5216 65.3983 17.6287 62.726 17.6287ZM62.726 25.2002C61.2785 25.2002 60.0537 23.9754 60.0537 22.3052C60.0537 20.6351 61.2785 19.4103 62.726 19.4103C64.1735 19.4103 65.3983 20.5237 65.3983 22.3052C65.3983 23.9754 64.1735 25.2002 62.726 25.2002ZM52.3709 17.6287C49.6986 17.6287 47.5831 19.633 47.5831 22.4166C47.5831 25.0889 49.6986 27.2044 52.3709 27.2044C55.0432 27.2044 57.1588 25.2002 57.1588 22.4166C57.1588 19.5216 55.0432 17.6287 52.3709 17.6287ZM52.3709 25.2002C50.9234 25.2002 49.6986 23.9754 49.6986 22.3052C49.6986 20.6351 50.9234 19.4103 52.3709 19.4103C53.8184 19.4103 55.0432 20.5237 55.0432 22.3052C55.0432 23.9754 53.8184 25.2002 52.3709 25.2002ZM40.0116 19.0762V21.0804H44.7995C44.6881 22.1939 44.2427 23.0847 43.686 23.6414C43.0179 24.3095 41.9045 25.0889 40.0116 25.0889C37.0053 25.0889 34.7784 22.7506 34.7784 19.7443C34.7784 16.738 37.1166 14.3997 40.0116 14.3997C41.5704 14.3997 42.7952 15.0678 43.686 15.8472L45.1335 14.3997C43.9087 13.2863 42.3499 12.3955 40.123 12.3955C36.1145 12.3955 32.6628 15.7359 32.6628 19.7443C32.6628 23.7527 36.1145 27.0931 40.123 27.0931C42.3499 27.0931 43.9087 26.425 45.2448 24.9775C46.581 23.6414 47.0264 21.7485 47.0264 20.301C47.0264 19.8556 47.0264 19.4103 46.915 19.0762H40.0116ZM90.5623 20.6351C90.1169 19.5216 89.0034 17.6287 86.5538 17.6287C84.1043 17.6287 82.1 19.5216 82.1 22.4166C82.1 25.0889 84.1042 27.2044 86.7765 27.2044C88.8921 27.2044 90.2282 25.8683 90.6736 25.0889L89.1148 23.9754C88.5581 24.7548 87.89 25.3116 86.7765 25.3116C85.6631 25.3116 84.995 24.8662 84.4383 23.8641L90.785 21.1918L90.5623 20.6351ZM84.1043 22.1939C84.1043 20.4124 85.5517 19.4103 86.5538 19.4103C87.3333 19.4103 88.1127 19.8556 88.3354 20.4124L84.1043 22.1939ZM78.871 26.759H80.9866V12.8409H78.871V26.759ZM75.5307 18.6308C74.974 18.0741 74.0832 17.5174 72.9698 17.5174C70.6315 17.5174 68.4046 19.633 68.4046 22.3052C68.4046 24.9775 70.5202 26.9817 72.9698 26.9817C74.0832 26.9817 74.974 26.425 75.4193 25.8683H75.5307V26.5364C75.5307 28.3179 74.5286 29.32 72.9698 29.32C71.745 29.32 70.8542 28.4292 70.6315 27.6498L68.85 28.4292C69.4067 29.654 70.7428 31.2129 73.0811 31.2129C75.5307 31.2129 77.5349 29.7654 77.5349 26.3137V17.8514H75.5307V18.6308ZM73.0811 25.2002C71.6336 25.2002 70.4088 23.9754 70.4088 22.3052C70.4088 20.6351 71.6336 19.4103 73.0811 19.4103C74.5286 19.4103 75.642 20.6351 75.642 22.3052C75.642 23.9754 74.5286 25.2002 73.0811 25.2002ZM100.249 12.8409H95.2388V26.759H97.3543V21.5258H100.249C102.588 21.5258 104.814 19.8556 104.814 17.1834C104.814 14.5111 102.588 12.8409 100.249 12.8409ZM100.361 19.5216H97.3543V14.7338H100.361C101.919 14.7338 102.81 16.0699 102.81 17.072C102.699 18.2968 101.808 19.5216 100.361 19.5216ZM113.165 17.5174C111.606 17.5174 110.048 18.1855 109.491 19.633L111.384 20.4124C111.829 19.6329 112.497 19.4103 113.277 19.4103C114.39 19.4103 115.392 20.0783 115.504 21.1918V21.3031C115.17 21.0804 114.279 20.7464 113.388 20.7464C111.384 20.7464 109.38 21.8599 109.38 23.8641C109.38 25.7569 111.05 26.9817 112.831 26.9817C114.279 26.9817 114.947 26.3137 115.504 25.6456H115.615V26.759H117.619V21.4145C117.396 18.9649 115.504 17.5174 113.165 17.5174ZM112.943 25.2002C112.275 25.2002 111.272 24.8662 111.272 23.9754C111.272 22.862 112.497 22.5279 113.499 22.5279C114.39 22.5279 114.835 22.7506 115.392 22.9733C115.17 24.3095 114.056 25.2002 112.943 25.2002ZM124.634 17.8514L122.296 23.8641H122.184L119.735 17.8514H117.508L121.182 26.3137L119.067 30.9902H121.182L126.861 17.8514H124.634ZM105.928 26.759H108.043V12.8409H105.928V26.759Z" fill="#010101"/>
<defs>
<linearGradient id="paint0_linear_82_1600" x1="12.6937" y1="3.82203" x2="-5.16233" y2="21.6769" gradientUnits="userSpaceOnUse">
<stop stop-color="#00A0FF"/>
<stop offset="0.007" stop-color="#00A1FF"/>
<stop offset="0.26" stop-color="#00BEFF"/>
<stop offset="0.512" stop-color="#00D2FF"/>
<stop offset="0.76" stop-color="#00DFFF"/>
<stop offset="1" stop-color="#00E3FF"/>
</linearGradient>
<linearGradient id="paint1_linear_82_1600" x1="25.497" y1="15.8348" x2="-0.24692" y2="15.8348" gradientUnits="userSpaceOnUse">
<stop stop-color="#FFE000"/>
<stop offset="0.409" stop-color="#FFBD00"/>
<stop offset="0.775" stop-color="#FFA500"/>
<stop offset="1" stop-color="#FF9C00"/>
</linearGradient>
<linearGradient id="paint2_linear_82_1600" x1="15.9136" y1="18.2763" x2="-8.29946" y2="42.4893" gradientUnits="userSpaceOnUse">
<stop stop-color="#FF3A44"/>
<stop offset="1" stop-color="#C31162"/>
</linearGradient>
<linearGradient id="paint3_linear_82_1600" x1="-2.73717" y1="-5.25794" x2="8.07559" y2="5.5548" gradientUnits="userSpaceOnUse">
<stop stop-color="#32A071"/>
<stop offset="0.069" stop-color="#2DA771"/>
<stop offset="0.476" stop-color="#15CF74"/>
<stop offset="0.801" stop-color="#06E775"/>
<stop offset="1" stop-color="#00F076"/>
</linearGradient>
</defs>
</svg>
